<svg width="50" height="52" viewBox="0 0 50 52" fill="none" xmlns="http://www.w3.org/2000/svg">
<path d="M22.6562 14.625V32.5C22.6537 35.085 21.6651 37.5634 19.9075 39.3913C18.1499 41.2192 15.7669 42.2473 13.2812 42.25C12.8668 42.25 12.4694 42.0788 12.1764 41.774C11.8834 41.4693 11.7188 41.056 11.7188 40.625C11.7188 40.194 11.8834 39.7807 12.1764 39.476C12.4694 39.1712 12.8668 39 13.2812 39C14.9389 39 16.5286 38.3152 17.7007 37.0962C18.8728 35.8772 19.5312 34.2239 19.5312 32.5V30.875H7.8125C6.9837 30.875 6.18884 30.5326 5.60279 29.9231C5.01674 29.3136 4.6875 28.487 4.6875 27.625V14.625C4.6875 13.763 5.01674 12.9364 5.60279 12.3269C6.18884 11.7174 6.9837 11.375 7.8125 11.375H19.5312C20.3601 11.375 21.1549 11.7174 21.741 12.3269C22.327 12.9364 22.6562 13.763 22.6562 14.625ZM42.1875 11.375H30.4688C29.6399 11.375 28.8451 11.7174 28.259 12.3269C27.673 12.9364 27.3438 13.763 27.3438 14.625V27.625C27.3438 28.487 27.673 29.3136 28.259 29.9231C28.8451 30.5326 29.6399 30.875 30.4688 30.875H42.1875V32.5C42.1875 34.2239 41.529 35.8772 40.3569 37.0962C39.1848 38.3152 37.5951 39 35.9375 39C35.5231 39 35.1257 39.1712 34.8326 39.476C34.5396 39.7807 34.375 40.194 34.375 40.625C34.375 41.056 34.5396 41.4693 34.8326 41.774C35.1257 42.0788 35.5231 42.25 35.9375 42.25C38.4231 42.2473 40.8062 41.2192 42.5638 39.3913C44.3214 37.5634 45.3099 35.085 45.3125 32.5V14.625C45.3125 13.763 44.9833 12.9364 44.3972 12.3269C43.8112 11.7174 43.0163 11.375 42.1875 11.375Z" fill="#F5EDE6"/>
</svg>
