<svg width="87" height="87" viewBox="0 0 87 87" fill="none" xmlns="http://www.w3.org/2000/svg">
<path d="M32.8777 63.1944C30.0939 59.8444 30.4198 54.884 31.4088 51.6948C47.577 59.5833 49.6873 45.1389 48.472 41.5278C53.9078 45.1389 59.1781 57.4848 53.5789 63.1944" stroke="#964B00" stroke-width="4.81481" stroke-linecap="round" stroke-linejoin="round"/>
<path d="M31.8369 63.1944C20.195 59.3254 17.2202 41.7004 22.1338 32.2421C25.7294 39.9802 31.5975 39.9802 31.5975 39.9802C27.6854 24.504 35.5095 12.8968 50.5946 9.02778C47.6374 14.4481 45.2713 22.9172 51.2672 28.3437C52.5364 25.9292 56.8016 20.6349 62.8939 20.6349C62.8939 20.6349 58.21 28.9474 63.2933 36.1908C69.1603 44.5511 67.6581 57.0018 58.9321 63.1944" stroke="#964B00" stroke-width="4.81481" stroke-linecap="round" stroke-linejoin="round"/>
<path d="M74.028 63.1944H12.6392L15.0228 72.1683C16.2319 76.7199 17.4824 77.6389 22.4673 77.6389H64.1999C69.1848 77.6389 70.4353 76.7199 71.6444 72.1683L74.028 63.1944Z" stroke="#964B00" stroke-width="4.81481" stroke-linecap="round" stroke-linejoin="round"/>
<path d="M12.8396 63.1944H9.02783M73.8272 63.1944H77.6389" stroke="#964B00" stroke-width="4.81481" stroke-linecap="round" stroke-linejoin="round"/>
</svg>
