<svg width="24" height="24" viewBox="0 0 24 24" fill="none" xmlns="http://www.w3.org/2000/svg">
<g clip-path="url(#clip0_21365_5813)">
<ellipse cx="14.146" cy="15.9512" rx="4" ry="6" fill="white"/>
<path d="M20.565 12.6554C18.7984 7.87995 12.5082 7.62245 14.0273 0.681665C14.1398 0.166666 13.6109 -0.231288 13.1833 0.0379163C9.09862 2.54269 6.16169 7.56393 8.62601 14.1419C8.82856 14.6803 8.22092 15.1836 7.78207 14.8324C5.74535 13.2289 5.53155 10.9231 5.71159 9.27279C5.7791 8.66416 5.01393 8.37154 4.6876 8.87484C3.92243 10.0921 3.146 12.0585 3.146 15.0197C3.57359 21.5743 8.89607 23.5874 10.809 23.8449C13.5434 24.2078 16.5028 23.6811 18.6296 21.6562C20.9701 19.3972 21.8253 15.7922 20.565 12.6554ZM10.1226 18.5428C11.743 18.1331 12.5757 16.9158 12.8007 15.839C13.1721 14.1653 11.7205 12.5267 12.6995 9.88143C13.0708 12.0702 16.3791 13.4396 16.3791 15.8273C16.4691 18.7886 13.3859 21.3285 10.1226 18.5428Z" fill="#964B00"/>
</g>
<defs>
<clipPath id="clip0_21365_5813">
<rect width="24" height="24" fill="white"/>
</clipPath>
</defs>
</svg>
