<svg width="32" height="32" viewBox="0 0 32 32" fill="none" xmlns="http://www.w3.org/2000/svg">
<path d="M12.1395 23.3333C11.1116 22.0964 11.2319 20.2648 11.5971 19.0873C17.5669 22 18.3461 16.6666 17.8974 15.3333C19.9045 16.6666 21.8504 21.2251 19.783 23.3333" stroke="#964B00" stroke-width="1.77778" stroke-linecap="round" stroke-linejoin="round"/>
<path d="M11.7552 23.3333C7.45669 21.9047 6.35832 15.3971 8.17255 11.9047C9.50017 14.7619 11.6668 14.7619 11.6668 14.7619C10.2224 9.0476 13.1113 4.76188 18.6812 3.33331C17.5893 5.33465 16.7156 8.46173 18.9295 10.4653C19.3981 9.57384 20.973 7.61903 23.2224 7.61903C23.2224 7.61903 21.493 10.6882 23.3699 13.3627C25.5362 16.4496 24.9815 21.0468 21.7596 23.3333" stroke="#964B00" stroke-width="1.77778" stroke-linecap="round" stroke-linejoin="round"/>
<path d="M27.3332 23.3333H4.6665L5.54663 26.6467C5.99304 28.3273 6.45479 28.6666 8.29537 28.6666H23.7043C25.5449 28.6666 26.0066 28.3273 26.453 26.6467L27.3332 23.3333Z" stroke="#964B00" stroke-width="1.77778" stroke-linecap="round" stroke-linejoin="round"/>
<path d="M4.7409 23.3333H3.3335M27.2594 23.3333H28.6668" stroke="#964B00" stroke-width="1.77778" stroke-linecap="round" stroke-linejoin="round"/>
</svg>
